<svg xmlns="http://www.w3.org/2000/svg" width="69.77" height="67.114" viewBox="0 0 69.77 67.114" preserveAspectRatio="xMinYMid meet" style="max-height: 59px;">
<defs>
<style>.a{fill:#FFFFFF;}</style>
</defs>
<path class="a" d="M100.125,62.221c7.668-3.029,11.156-7.4,11.156-13.79,0-10.761-10.11-17.992-25.148-17.992-1.909,0-4.117.1-6.186.192-1.653.075-3.2.149-4.426.149H61.379a1.734,1.734,0,0,0-1.728,1.728v.971a1.734,1.734,0,0,0,1.728,1.728h6.186L67.5,83.828c0,8.521-2.549,9.236-5.172,9.236-1.962,0-2.954-.64-2.954-1.9a9.7,9.7,0,0,1,1.568-4.341,10.789,10.789,0,0,0,1.706-4.938c0-3.327-2.442-6.676-7.913-6.676-5.5,0-9.065,3.562-9.065,9.065,0,6.57,5.546,13.224,16.136,13.224,12.6,0,20.114-8.244,20.114-22.055l.021-10.526h8.873c6.975,0,9.321,3.562,9.321,14.1,0,10.142-2.741,14.1-9.769,14.1-1.226,0-5.535-.064-10.014-.149-.885.043-2.442.245-2.442,2.2a2.088,2.088,0,0,0,2.1,2.08c.9.032,1.866.075,2.88.117,2.229.1,4.618.192,6.687.192,21.372,0,25.862-9.684,25.862-17.81C115.44,71.319,110.043,65.218,100.125,62.221ZM57.892,85.2a12.659,12.659,0,0,0-1.984,5.983,5.4,5.4,0,0,0,.373,2.026C51.557,91.6,49.1,87.935,49.1,84.3c0-3.562,2.048-5.61,5.61-5.61,2.837,0,4.458,1.173,4.458,3.221A8.324,8.324,0,0,1,57.892,85.2Zm20.562-9.758c0,8.607-3.21,14.536-9.044,17.128,1.28-2.453,1.536-5.706,1.536-8.724l.075-49.56,4.223-.043h.032l3.253-.032ZM90.015,60.494h-8V35.1c1.9-.128,3.946-.235,4.725-.235,6.943,0,8.212,1.888,8.98,3.989.96,2.634,1.13,5.236,1.13,9.4C96.872,58.8,94.846,60.494,90.015,60.494Zm8.959-22.823a9.368,9.368,0,0,0-.843-1.77c6.111,2.4,9.694,6.8,9.694,12.531,0,3.551-1.173,7.5-9.023,10.6,1.173-2.634,1.525-6.282,1.525-10.772S100.1,40.774,98.973,37.671Zm.64,55.5c3.434-3.583,3.978-9.364,3.978-14.142,0-4.874-.448-9.566-2.581-12.862,5.855,2.165,10.974,6.175,10.974,13.566C111.984,86.921,107.921,91.369,99.613,93.171Z" transform="translate(-45.67 -30.44)"></path>
</svg>
