<?xml version="1.0" standalone="no"?>
<!DOCTYPE svg PUBLIC "-//W3C//DTD SVG 20010904//EN"
 "http://www.w3.org/TR/2001/REC-SVG-20010904/DTD/svg10.dtd">
<svg version="1.0" xmlns="http://www.w3.org/2000/svg"
 width="94.000000pt" height="150.000000pt" viewBox="0 0 94.000000 150.000000"
 preserveAspectRatio="xMidYMid meet">

<g transform="translate(0.000000,150.000000) scale(0.100000,-0.100000)"
 stroke="none">
<path d="M514 1409 c-81 -82 -86 -89 -61 -89 l27 0 0 -90 c0 -89 0 -90 -25
-90 -18 0 -25 -5 -25 -20 0 -11 7 -20 15 -20 19 0 20 50 -15 -493 -36 -556
-37 -567 -56 -567 -8 0 -14 -9 -14 -20 0 -19 7 -20 245 -20 238 0 245 1 245
20 0 11 -7 20 -15 20 -8 0 -15 1 -15 3 0 1 -14 229 -30 507 -35 593 -34 550
-15 550 8 0 15 9 15 20 0 15 -7 20 -25 20 -25 0 -25 1 -25 90 l0 90 27 0 c26
0 25 3 -32 61 -33 33 -76 73 -96 89 l-36 29 -89 -90z m186 -174 l0 -85 -90 0
-90 0 0 85 0 85 90 0 90 0 0 -85z m33 -382 c4 -38 7 -90 7 -118 l0 -50 -138
-72 -138 -72 4 72 c2 40 7 101 10 136 l7 63 115 54 c63 30 118 54 121 54 3 0
9 -30 12 -67z m31 -545 c3 -18 7 -77 10 -130 l5 -98 -64 0 -65 0 0 40 0 40
-40 0 -40 0 0 -40 0 -40 -71 0 c-69 0 -71 1 -65 23 3 12 6 37 6 55 0 33 1 34
153 107 83 41 155 74 159 74 4 1 9 -14 12 -31z" fill="#FFFFFF" />
<path d="M10 1407 c0 -20 21 -32 155 -92 136 -62 177 -85 146 -85 -4 0 -74
-30 -155 -66 -126 -57 -146 -70 -146 -89 0 -22 10 -18 183 59 244 111 244 106
20 206 -222 100 -203 94 -203 67z" fill="#da5251"/>
</g>
</svg>
